<svg xmlns="http://www.w3.org/2000/svg" viewBox="46,46,166,166">
    <g fill="none" fill-rule="nonzero" stroke="none" stroke-width="1" stroke-linecap="butt" stroke-linejoin="miter" stroke-miterlimit="10" stroke-dasharray="" stroke-dashoffset="0" font-family="none" font-weight="none" font-size="none" text-anchor="none" style="mix-blend-mode: normal"><g transform="scale(2.56,2.56)"><path d="M70,18.988h-39c-6.6,0 -12,5.4 -12,12v39c0,6.6 5.4,12 12,12h39c6.6,0 12,-5.4 12,-12v-39c0,-6.6 -5.4,-12 -12,-12z" fill="#afa1d3"></path><path d="M70,83h-39c-7.18,0 -13,-5.82 -13,-13v-39c0,-7.18 5.82,-13 13,-13h39c7.18,0 13,5.82 13,13v39c0,7.18 -5.821,13 -13,13zM20,31v39c0,6.075 4.925,11 11,11h39c6.075,0 11,-4.925 11,-11v-39c0,-6.075 -4.925,-11 -11,-11h-39c-6.076,0 -11,4.925 -11,11z" fill="#1f212b"></path><path d="M67.162,78h-33.325c-5.985,0 -10.837,-4.852 -10.837,-10.837v-33.326c0,-5.985 4.852,-10.837 10.837,-10.837h33.663c0.276,0 0.5,0.224 0.5,0.5c0,0.276 -0.224,0.5 -0.5,0.5h-33.663c-5.433,0 -9.837,4.404 -9.837,9.837v33.325c0,5.433 4.405,9.838 9.838,9.838h33.325c5.433,0 9.837,-4.404 9.837,-9.837v-18.663c0,-0.276 0.224,-0.5 0.5,-0.5c0.276,0 0.5,0.224 0.5,0.5v18.662c0,5.986 -4.853,10.838 -10.838,10.838zM77.5,45.579c-0.276,0 -0.5,-0.224 -0.5,-0.5v-4c0,-0.276 0.224,-0.5 0.5,-0.5c0.276,0 0.5,0.224 0.5,0.5v4c0,0.277 -0.224,0.5 -0.5,0.5zM77.5,39.579c-0.276,0 -0.5,-0.224 -0.5,-0.5v-2c0,-0.276 0.224,-0.5 0.5,-0.5c0.276,0 0.5,0.224 0.5,0.5v2c0,0.277 -0.224,0.5 -0.5,0.5z" fill="#1f212b"></path><path d="M52.461,39.004c5.135,0 8.011,2.806 9.454,3.745c0.352,0.229 0.816,0.173 1.114,-0.123l2.855,-3.225c0.374,-0.37 0.365,-0.973 -0.033,-1.318c-1.131,-0.982 -3.626,-2.831 -7.417,-4.066l0.861,-4.097c0.119,-0.56 -0.311,-1.087 -0.883,-1.087h-5.534c-0.426,0 -0.796,0.3 -0.883,0.717l-0.686,3.264c-0.191,-0.006 -0.36,-0.034 -0.554,-0.036c-5.769,-0.058 -10.743,3.766 -11.348,8.567c-0.576,4.563 1.103,10.024 10.465,12.453c5.24,1.36 6.186,3.004 5.917,4.945c-0.283,2.049 -2.481,3.391 -7.197,3.134c-4.063,-0.222 -7.146,-2.883 -8.479,-3.931c-0.367,-0.287 -0.883,-0.247 -1.204,0.09l-3.004,3.387c-0.329,0.345 -0.339,0.876 -0.02,1.228c1.11,1.228 3.899,3.863 8.077,5.101l-0.699,3.323c-0.117,0.562 0.311,1.089 0.885,1.089h5.534c0.426,0 0.796,-0.3 0.883,-0.717l0.662,-3.148c7.239,-0.739 11.366,-4.726 12.246,-8.631c1.06,-4.696 -0.619,-10.51 -10.599,-12.762c-4.503,-1.017 -5.975,-2.92 -5.697,-5.122c0.199,-1.574 2.124,-2.78 5.284,-2.78z" fill="#fafafa"></path><path d="M49.68,72.667h-5.534c-0.425,0 -0.822,-0.189 -1.09,-0.519c-0.268,-0.33 -0.372,-0.757 -0.284,-1.173l0.605,-2.879c-4.146,-1.353 -6.866,-4.003 -7.865,-5.108c-0.497,-0.548 -0.485,-1.368 0.029,-1.907l2.992,-3.375c0.51,-0.538 1.317,-0.6 1.887,-0.151l0.281,0.223c1.387,1.104 4.274,3.402 7.917,3.603c4.034,0.221 6.403,-0.742 6.674,-2.704c0.205,-1.481 -0.324,-3.038 -5.547,-4.393c-9.985,-2.591 -11.404,-8.5 -10.835,-13c0.644,-5.109 5.869,-9.066 11.849,-9.005c0.051,0 0.101,0.002 0.15,0.005l0.597,-2.836c0.135,-0.645 0.712,-1.114 1.372,-1.114h5.534c0.426,0 0.823,0.189 1.091,0.521c0.267,0.33 0.369,0.756 0.281,1.17l-0.77,3.66c3.651,1.264 6.043,3.047 7.164,4.021c0.295,0.256 0.464,0.611 0.477,1c0.014,0.39 -0.14,0.773 -0.419,1.05l-2.834,3.201c-0.486,0.486 -1.219,0.564 -1.761,0.209c-0.228,-0.148 -0.492,-0.342 -0.794,-0.564c-1.572,-1.159 -4.206,-3.099 -8.387,-3.099c-2.686,0 -4.61,0.943 -4.789,2.346c-0.274,2.176 1.512,3.714 5.311,4.571c4.675,1.055 7.954,2.964 9.746,5.676c1.826,2.764 1.677,5.704 1.229,7.684c-0.809,3.591 -4.521,8.06 -12.317,8.979l-0.588,2.794c-0.134,0.645 -0.711,1.114 -1.372,1.114zM39.56,58.256c-0.105,0 -0.209,0.043 -0.289,0.127l-2.993,3.375c-0.16,0.168 -0.165,0.403 -0.023,0.56c0.978,1.081 3.697,3.728 7.849,4.958l0.442,0.131l-0.794,3.774c-0.034,0.164 0.037,0.281 0.082,0.337c0.045,0.056 0.146,0.149 0.314,0.149h5.534c0.189,0 0.355,-0.134 0.394,-0.318l0.737,-3.507l0.363,-0.037c7.518,-0.768 11.06,-4.921 11.809,-8.245c0.404,-1.79 0.543,-4.441 -1.089,-6.911c-1.646,-2.489 -4.718,-4.256 -9.133,-5.252c-5.462,-1.233 -6.323,-3.766 -6.082,-5.672c0.249,-1.957 2.518,-3.22 5.781,-3.22c4.51,0 7.309,2.062 8.98,3.294c0.283,0.208 0.531,0.392 0.746,0.532c0.15,0.099 0.356,0.073 0.488,-0.058l2.834,-3.202c0.105,-0.107 0.15,-0.216 0.146,-0.331c-0.004,-0.108 -0.051,-0.207 -0.134,-0.279c-1.106,-0.961 -3.52,-2.754 -7.244,-3.968l-0.427,-0.139l0.954,-4.536c0.034,-0.162 -0.035,-0.279 -0.08,-0.334c-0.077,-0.095 -0.191,-0.149 -0.313,-0.149h-5.534c-0.189,0 -0.354,0.134 -0.394,0.319l-0.772,3.674l-0.419,-0.013c-0.097,-0.003 -0.189,-0.011 -0.281,-0.019c-0.125,-0.011 -0.257,-0.018 -0.388,-0.017c-5.448,0 -10.144,3.552 -10.721,8.13c-0.518,4.103 0.813,9.499 10.094,11.906c4.833,1.254 6.654,2.847 6.286,5.498c-0.204,1.478 -1.478,3.905 -7.719,3.565c-3.962,-0.217 -7.018,-2.649 -8.486,-3.818l-0.275,-0.218c-0.073,-0.058 -0.158,-0.086 -0.243,-0.086z" fill="#1f212b"></path></g></g>
</svg>
